<svg xmlns="http://www.w3.org/2000/svg" width="100%" height="100%" viewBox="0 0 1200 300"><defs><linearGradient id="bgGrad" x1="0%" x2="100%" y1="0%" y2="100%"><stop offset="0%" stop-color="#0f172a"/><stop offset="50%" stop-color="#1e1b4b"/><stop offset="100%" stop-color="#090d16"/></linearGradient><linearGradient id="accentGrad" x1="0%" x2="100%" y1="0%" y2="0%"><stop offset="0%" stop-color="#38bdf8"/><stop offset="50%" stop-color="#818cf8"/><stop offset="100%" stop-color="#c084fc"/></linearGradient><linearGradient id="glowGrad" x1="0%" x2="100%" y1="0%" y2="100%"><stop offset="0%" stop-color="#38bdf8" stop-opacity=".15"/><stop offset="100%" stop-color="#c084fc" stop-opacity=".05"/></linearGradient><pattern id="grid" width="40" height="40" patternUnits="userSpaceOnUse"><path fill="none" stroke="#334155" stroke-opacity=".3" stroke-width="1" d="M 40 0 L 0 0 0 40"/></pattern></defs><style>@keyframes pulse{0%{transform:scale(1);opacity:.4}}.badge-text,.subtitle,.title{font-family:system-ui,-apple-system,&apos;Segoe UI&apos;,Roboto,Helvetica,Arial,sans-serif}.title{font-weight:800;font-size:48px;fill:#fff;letter-spacing:-.5px}.subtitle{font-weight:500;font-size:20px;fill:#94a3b8}.badge-text{font-weight:600;font-size:14px;fill:#38bdf8}.orbit-particle,.orbit-particle-2{animation:spin 12s linear infinite;transform-origin:1000px 150px}.orbit-particle-2{animation:spin 18s linear infinite reverse}</style><rect width="1200" height="300" fill="url(#bgGrad)" rx="16"/><rect width="1200" height="300" fill="url(#grid)" rx="16"/><g opacity=".6"><circle cx="1000" cy="150" r="120" fill="url(#glowGrad)"/><circle cx="1000" cy="150" r="90" fill="none" stroke="#38bdf8" stroke-dasharray="6 6" stroke-opacity=".4" stroke-width="1.5"/><circle cx="1000" cy="150" r="50" fill="none" stroke="#818cf8" stroke-opacity=".5" stroke-width="1.5"/><g class="orbit-particle"><line x1="1000" x2="1090" y1="150" y2="150" stroke="#38bdf8" stroke-opacity=".6" stroke-width="2"/><circle cx="1090" cy="150" r="9" fill="#38bdf8"/><circle cx="1090" cy="150" r="16" fill="none" stroke="#38bdf8" stroke-opacity=".3" stroke-width="2"/></g><g class="orbit-particle-2"><line x1="1000" x2="950" y1="150" y2="106" stroke="#818cf8" stroke-opacity=".6" stroke-width="2"/><circle cx="950" cy="106" r="8" fill="#818cf8"/><line x1="1000" x2="1035" y1="150" y2="193" stroke="#c084fc" stroke-opacity=".6" stroke-width="2"/><circle cx="1035" cy="193" r="10" fill="#c084fc"/></g><polygon fill="none" stroke="#38bdf8" stroke-opacity=".8" stroke-width="2.5" points="1000 115 1030 132.5 1030 167.5 1000 185 970 167.5 970 132.5"/><circle cx="1000" cy="150" r="22" fill="none" stroke="#818cf8" stroke-opacity=".6" stroke-width="2"/></g><g transform="translate(60, 0)"><rect width="230" height="32" x="0" y="52" fill="#1e293b" stroke="#38bdf8" stroke-opacity=".6" stroke-width="1.5" rx="16"/><text x="15" y="73" class="badge-text">🧪 CHEMINFORMATICS &amp; R&amp;D</text><text x="0" y="140" class="title">Awesome Chemical Registration</text><rect width="480" height="4" x="0" y="158" fill="url(#accentGrad)" rx="2"/><text x="0" y="200" class="subtitle">Curated SaaS Platforms &amp; Open-Source Compound Management Tools</text><g><text x="0" y="16" fill="#64748b" font-family="system-ui, sans-serif" font-size="14" font-weight="600" transform="translate(0, 225)">🔬 Structure Standardization • 📊 Inventory Management • 🧬 FAIR Bioassay Integration</text></g></g></svg>